<?xml version="1.0" encoding="utf-8"?>
<!-- Generator: Adobe Illustrator 21.0.2, SVG Export Plug-In . SVG Version: 6.00 Build 0)  -->
<svg version="1.1" id="Layer_1" xmlns="http://www.w3.org/2000/svg" xmlns:xlink="http://www.w3.org/1999/xlink" x="0px" y="0px"
	 viewBox="0 0 500 500" style="enable-background:new 0 0 500 500;" xml:space="preserve">
<style type="text/css">
	.st0{fill:#FED2A4;}
	.st1{fill:#FFE781;}
	.st2{fill:#FFF5B3;}
	.st3{fill:#0A9AC6;}
	.st4{clip-path:url(#SVGID_2_);}
	.st5{display:none;}
	.st6{display:inline;}
</style>
<g>
	<path class="st0" d="M438.5,229c-10.1-8.5-25.1-7.3-33.7,2.8L350.1,288h0.1c-3-10.2-12.4-17.6-23.5-17.6h-90.6
		c-11.8-5.1-24.8-8-38.4-8c-37.8,0-70.6,18.3-86.2,53.1l72.3,71.9l0.1-0.1l12.5-12c6-5.8,13.9-9,22.2-9h106.6
		c16.6,0,32.5-6.5,44.4-18.1l71.7-85.7C449.8,252.6,448.6,237.5,438.5,229L438.5,229z M438.5,229"/>
	<path class="st1" d="M364,132.9c0,44.2-35.8,80-80,80s-80-35.8-80-80c0-44.2,35.8-80,80-80S364,88.7,364,132.9L364,132.9z
		 M364,132.9"/>
	<path class="st2" d="M334.1,132.9c0,27.6-22.4,50-50,50s-50-22.4-50-50c0-27.6,22.4-50,50-50S334.1,105.2,334.1,132.9L334.1,132.9z
		 M334.1,132.9"/>
	<path class="st3" d="M182.2,408.3l-38.7,38.2L53.7,356l38-38.2c6.2-6.2,16.4-6.2,22.6,0l67.9,67.9
		C188.5,392,188.5,402.1,182.2,408.3L182.2,408.3z M182.2,408.3"/>
	<path d="M234.2,322.7c3.1-3.1,3.1-8.2,0-11.3c-3.1-3.1-8.2-3.1-11.3,0c-3.1,3.1-3.1,8.2,0,11.3C226,325.8,231,325.8,234.2,322.7
		L234.2,322.7z M234.2,322.7"/>
	<g>
		<defs>
			<rect id="SVGID_1_" x="45.5" y="44.6" width="409" height="410.9"/>
		</defs>
		<clipPath id="SVGID_2_">
			<use xlink:href="#SVGID_1_"  style="overflow:visible;"/>
		</clipPath>
		<path class="st4" d="M196.3,132.9c0,48.5,39.5,88,88,88c48.5,0,88-39.5,88-88c0-48.5-39.5-88-88-88
			C235.7,44.9,196.3,84.3,196.3,132.9L196.3,132.9z M356.2,132.9c0,39.7-32.3,72-72,72c-39.7,0-72-32.3-72-72c0-39.7,32.3-72,72-72
			C323.9,60.9,356.2,93.2,356.2,132.9L356.2,132.9z M356.2,132.9"/>
		<path class="st4" d="M138,452.1c3.1,3.1,8.1,3.2,11.3,0.1l38.8-38.2c6.6-6.6,8.6-16.3,5.7-24.8l8.3-8c4.5-4.3,10.4-6.7,16.7-6.7
			h106.3c18.9,0,36.7-7.2,50.2-20.4c0.6-0.5-4.2,5.1,72.5-86.7c11.4-13.5,9.7-33.7-3.8-45.1c-13.4-11.3-33.5-9.7-44.9,3.6L352,274.3
			c-6-7.3-15-11.9-24.9-11.9h-89.2c-12.7-5.3-26.2-8-40.1-8c-38.5,0-72.1,17.8-90.2,51.1c-7.6-1.4-15.6,0.9-21.4,6.6l-38,38.2
			c-3.1,3.1-3.1,8.2,0,11.3L138,452.1z M197.9,270.4c12.3,0,24.1,2.5,35.2,7.3c1,0.4,2.1,0.7,3.2,0.7h90.8c8.7,0,16,7.1,16,16
			c0,8.8-7.2,16-16,16h-65.3c-4.4,0-8,3.6-8,8c0,4.4,3.6,8,8,8h65.3c17.6,0,32-14.4,32-32c0-1.4-0.1-2.8-0.3-4.2
			c45.7-46.9,52.1-53.5,52.4-53.9c5.7-6.7,15.8-7.6,22.6-1.9c6.7,5.7,7.6,15.8,1.9,22.6l-71.7,85.8c-10.5,10.1-24.2,15.6-38.8,15.6
			H218.8c-10.4,0-20.3,4-27.8,11.2l-6.8,6.6l-62.7-62.7C136.2,286,163.7,270.4,197.9,270.4L197.9,270.4z M97.6,323.5
			c2.6-2.6,6.7-3.1,9.9-1.1c1.4,0.8-2.6-2.8,69.3,69c3.2,3.2,3,8.3,0,11.3l-33.1,32.6L65.2,356L97.6,323.5z M97.6,323.5"/>
	</g>
	<g class="st5">
		<path class="st6" d="M234.8,98.2c0-4.3,3.4-7.7,7.7-7.7h24.3c8.9,0,15.8,2.5,20.4,7.1c3.9,3.9,6,9.4,6,16v0.2
			c0,11-5.5,17.8-14,21.3l10.7,13c1.5,1.9,2.5,3.5,2.5,5.9c0,4.3-3.6,7.1-7.3,7.1c-3.5,0-5.8-1.7-7.6-4l-15-19h-12.3v15.3
			c0,4.3-3.4,7.7-7.7,7.7c-4.3,0-7.7-3.4-7.7-7.7V98.2z M265.8,124.5c7.5,0,11.8-4,11.8-9.9v-0.2c0-6.6-4.6-10-12.1-10h-15.3v20.1
			H265.8z"/>
		<path class="st6" d="M285.5,113.9c0-4.2,3.4-7.6,7.6-7.6c4.2,0,7.6,3.4,7.6,7.6v0.7c3.7-5,8.8-8.7,16.7-8.7
			c12.5,0,24.4,9.8,24.4,27.7v0.2c0,17.9-11.7,27.7-24.4,27.7c-8.1,0-13.1-3.7-16.7-8v16c0,4.2-3.4,7.6-7.6,7.6
			c-4.2,0-7.6-3.4-7.6-7.6V113.9z M326.6,133.8v-0.2c0-8.9-6-14.8-13.1-14.8c-7.1,0-13,5.9-13,14.8v0.2c0,8.9,5.9,14.8,13,14.8
			C320.6,148.6,326.6,142.8,326.6,133.8z"/>
	</g>
	<path d="M325.2,131.2c0,4.4,3.6,8,8,8c4.4,0,8-3.6,8-8c0-30.9-25.1-56-56-56c-4.4,0-8,3.6-8,8c0,4.4,3.6,8,8,8
		C307.3,91.2,325.2,109.1,325.2,131.2L325.2,131.2z M325.2,131.2"/>
</g>
</svg>
