<?xml version="1.0" encoding="utf-8"?>
<!-- Generator: Adobe Illustrator 21.0.2, SVG Export Plug-In . SVG Version: 6.00 Build 0)  -->
<svg version="1.1" id="Layer_1" xmlns="http://www.w3.org/2000/svg" xmlns:xlink="http://www.w3.org/1999/xlink" x="0px" y="0px"
	 viewBox="0 0 500 500" style="enable-background:new 0 0 500 500;" xml:space="preserve">
<style type="text/css">
	.st0{fill:#0A9AC6;}
	.st1{fill:#FFFFFF;}
	.st2{fill:#FFA900;}
	.st3{fill:#424D63;}
</style>
<g>
	<path class="st0" d="M302.8,106H69.2c-8.8,0-16,7.2-16,16v208c0,8.8,7.2,16,16,16h249.6V122C318.8,113.2,311.6,106,302.8,106
		L302.8,106z M302.8,106"/>
	<path class="st1" d="M186,154c35.3,0,64,28.7,64,64s-28.7,64-64,64s-64-28.7-64-64S150.7,154,186,154L186,154z M186,154"/>
	<path class="st1" d="M318.8,250v-64h80l16,64H318.8z M318.8,250"/>
	<path class="st2" d="M390.8,154c8.8,0,16,7.2,16,16c0,8.8-7.2,16-16,16h-72v-32H390.8z M390.8,154"/>
	<path class="st2" d="M414.8,250h-96v96h112c8.8,0,16-7.2,16-16v-48C446.8,264.3,432.5,250,414.8,250L414.8,250z M414.8,250"/>
	<path class="st3" d="M430.8,354c0,22.1-17.9,40-40,40c-22.1,0-40-17.9-40-40c0-22,17.8-40,40-40C413,314,430.8,332,430.8,354
		L430.8,354z M430.8,354"/>
	<path class="st3" d="M186,354c0,22.1-17.9,40-40,40c-22.1,0-40-17.9-40-40c0-22,17.8-40,40-40C168.2,314,186,332,186,354L186,354z
		 M186,354"/>
	<path d="M390.8,338c-8.8,0-16,7.2-16,16s7.2,16,16,16c8.8,0,16-7.2,16-16S399.6,338,390.8,338L390.8,338z M390.8,338"/>
	<path d="M382.8,274c-4.4,0-8,3.6-8,8c0,4.4,3.6,8,8,8c4.4,0,8-3.6,8-8C390.8,277.6,387.2,274,382.8,274L382.8,274z M382.8,274"/>
	<path d="M146,338c-8.8,0-16,7.2-16,16s7.2,16,16,16c8.8,0,16-7.2,16-16S154.8,338,146,338L146,338z M146,338"/>
	<path d="M421.2,242.5l-13.8-55.2c4.9-4.7,7.4-10.9,7.4-17.3c0-13.2-10.8-24-24-24h-64v-24c0-13.2-10.8-24-24-24H69.2
		c-13.2,0-24,10.8-24,24v208c0,13.2,10.8,24,24,24H98c0,26.5,21.5,48,48,48s48-21.5,48-48h148.8c0,26.5,21.5,48,48,48
		c26.5,0,48-21.5,48-48c0-0.5,0-0.9,0-1.4c9.3-3.3,16-12.2,16-22.6v-48C454.8,262.1,440.2,245.6,421.2,242.5L421.2,242.5z
		 M392.6,194l12,48h-66.4l18.3-18.3c3.1-3.1,3.1-8.2,0-11.3c-3.1-3.1-8.2-3.1-11.3,0l-18.3,18.3V194H392.6z M398.8,170
		c0,4.4-3.6,8-8,8h-64v-16h64C395.2,162,398.8,165.6,398.8,170L398.8,170z M146,386c-17.6,0-32-14.4-32-32c0-17.9,14.6-32,32-32
		c17.4,0,32,14.2,32,32C178,371.6,163.6,386,146,386L146,386z M191.3,338c-6.7-18.9-24.8-32-45.3-32c-20.5,0-38.6,13.1-45.3,32H69.2
		c-4.4,0-8-3.6-8-8V122c0-4.4,3.6-8,8-8h233.6c4.4,0,8,3.6,8,8v216H191.3z M390.8,386c-17.6,0-32-14.4-32-32c0-17.9,14.6-32,32-32
		c17.4,0,32,14.2,32,32C422.8,371.6,408.4,386,390.8,386L390.8,386z M435.5,336.5c-7.1-18.1-24.8-30.5-44.7-30.5
		c-20.5,0-38.6,13.1-45.3,32h-18.7v-80h88c10.4,0,19.3,6.7,22.6,16h-22.6c-4.4,0-8,3.6-8,8s3.6,8,8,8h24v40
		C438.8,332.7,437.5,335,435.5,336.5L435.5,336.5z M435.5,336.5"/>
	<path d="M186,146c-39.7,0-72,32.3-72,72s32.3,72,72,72s72-32.3,72-72S225.7,146,186,146L186,146z M186,274c-30.9,0-56-25.1-56-56
		s25.1-56,56-56s56,25.1,56,56S216.9,274,186,274L186,274z M186,274"/>
	<path d="M218,210h-24v-24c0-4.4-3.6-8-8-8s-8,3.6-8,8v32c0,4.4,3.6,8,8,8h32c4.4,0,8-3.6,8-8S222.4,210,218,210L218,210z M218,210"
		/>
</g>
</svg>
