<?xml version="1.0" encoding="utf-8"?>
<!-- Generator: Adobe Illustrator 21.0.2, SVG Export Plug-In . SVG Version: 6.00 Build 0)  -->
<svg version="1.1" id="Layer_1" xmlns="http://www.w3.org/2000/svg" xmlns:xlink="http://www.w3.org/1999/xlink" x="0px" y="0px"
	 viewBox="0 0 500 500" style="enable-background:new 0 0 500 500;" xml:space="preserve">
<style type="text/css">
	.st0{fill:#FAFAFF;}
	.st1{fill:#0A9AC6;}
	.st2{fill:#FFE781;}
	.st3{fill:#FFF5B3;}
</style>
<g>
	<path class="st0" d="M218,303.2v111.9l32-32l32,32V303.6L218,303.2z M218,303.2"/>
	<path class="st1" d="M282.1,302.9c0,0.1-0.1,0.3-0.1,0.4v111.5l32,32V306.1L282.1,302.9z M282.1,302.9"/>
	<path class="st1" d="M218,302.8l-32,3.3v140.7l32-32L218,302.8C218,302.8,218,302.8,218,302.8L218,302.8z M218,302.8"/>
	<path class="st2" d="M282,303.3c-4.8,13.1-17.3,22.4-32,22.4c-14.9,0-27.5-9.5-32-22.8c0,0,0,0,0,0c-5.4,3.7-12,5.8-19.1,5.8
		c-4.6,0-8.9-0.9-12.9-2.5c-12.4-5.1-21.2-17.3-21.1-31.5c-18.8,0-34.1-15.2-34.1-34.1c0-7,2.1-13.5,5.8-18.9
		c-13.3-4.7-22.8-17.3-22.8-32.2c0-14.9,9.5-27.5,22.8-32.1c-3.6-5.4-5.8-11.9-5.8-18.9c0-18.8,15.3-34.1,34.1-34.1
		c-0.1-18.8,15.2-34.1,34-34.1c7,0,13.5,2.1,18.9,5.7c4.7-13.3,17.3-22.8,32.1-22.8c14.9,0,27.5,9.5,32.1,22.8
		c5.4-3.6,11.9-5.7,18.9-5.7c18.8,0,34.1,15.3,34.1,34.1c0.6,0,1.1,0,1.7,0c18,0.9,32.4,15.8,32.4,34c0,7-2.1,13.5-5.8,18.9
		c13.3,4.7,22.8,17.3,22.8,32.1c0,14.9-9.5,27.5-22.8,32.2c3.6,5.4,5.8,11.9,5.8,18.9c0,18.9-15.3,34.2-34.2,34.1
		c0.1,14.2-8.6,26.4-21,31.5c-4,1.6-8.3,2.5-12.9,2.5c-7,0-13.5-2.1-18.9-5.7C282.1,303,282,303.2,282,303.3L282,303.3z M282,303.3"
		/>
	<path class="st3" d="M330.8,190c0,44.6-36.2,80.8-80.8,80.8c-44.6,0-80.8-36.2-80.8-80.8c0-44.6,36.2-80.8,80.8-80.8
		C294.6,109.2,330.8,145.4,330.8,190L330.8,190z M330.8,190"/>
	<path d="M194,141.2c4.4,0,8-3.6,8-8c0-4.4-3.6-8-8-8c-4.4,0-8,3.6-8,8C186,137.6,189.6,141.2,194,141.2L194,141.2z M194,141.2"/>
	<path d="M394.2,189.4c0-14.7-7.7-28.2-19.9-35.8c1.9-4.8,2.9-10,2.9-15.3c0-20.6-14.8-37.9-34.7-41.4
		c-3.5-19.7-20.7-34.7-41.4-34.7c-5.3,0-10.5,1-15.3,2.9c-7.6-12.2-21-19.9-35.8-19.9c-14.7,0-28.2,7.7-35.8,19.9
		c-4.8-1.9-10-2.9-15.3-2.9c-11.3,0-21.8,4.4-29.8,12.4c-6.2,6.2-10.1,13.9-11.6,22.3c-8.4,1.5-16.2,5.5-22.4,11.7
		c-8,7.9-12.3,18.5-12.3,29.8c0,5.3,1,10.5,2.9,15.3c-12.2,7.6-19.9,21-19.9,35.8c0,14.7,7.7,28.2,19.9,35.8
		c-1.9,4.9-2.9,10-2.9,15.3c0,20.7,15,37.9,34.7,41.4c2.1,12.3,9.6,22.9,20.5,29.1v135.7c0,3.2,1.9,6.2,4.9,7.4
		c3,1.2,6.4,0.5,8.7-1.7l58.3-58.3l58.3,58.3c2.3,2.3,5.7,3,8.7,1.7c3-1.2,4.9-4.2,4.9-7.4V311.1c10.9-6.2,18.3-16.9,20.4-29.1
		c8.5-1.5,16.2-5.5,22.4-11.6c8-8,12.4-18.5,12.4-29.8c0-5.3-1-10.5-2.9-15.3C386.5,217.6,394.2,204.2,394.2,189.4L394.2,189.4z
		 M194,316.3c1.6,0.2,3.3,0.3,4.9,0.3c3.8,0,7.5-0.5,11.1-1.5v96.3l-16,16V316.3z M244.3,377.1L226,395.5v-69.4
		c6.9,4.8,15.2,7.6,24,7.6c8.8,0,17.1-2.8,24-7.5v69.4l-18.3-18.3C252.5,374,247.5,374,244.3,377.1L244.3,377.1z M290,411.5v-96.3
		c3.6,1,7.3,1.5,11.1,1.5c1.7,0,3.3-0.1,4.9-0.3v111.1L290,411.5z M360.8,214.1c-2.3,0.8-4.2,2.7-4.9,5c-0.8,2.3-0.4,4.9,0.9,7
		c2.9,4.3,4.4,9.3,4.4,14.5c0,7-2.7,13.5-7.7,18.5c-4.9,4.9-11.5,7.6-18.4,7.6c-0.1,0-0.1,0-0.2,0c-2.1,0-4.2,0.8-5.7,2.4
		c-1.5,1.5-2.3,3.6-2.3,5.7c0.1,10.6-6.2,20-16,24h0c-3.1,1.3-6.5,1.9-9.9,1.9c-5.2,0-10.2-1.5-14.5-4.4c-1.1-0.8-2.4-1.2-3.8-1.3h0
		c-0.2,0-0.4,0-0.6,0c-0.1,0-0.1,0-0.2,0c-3.9,0-7.1,2.8-7.9,6.5c-4,9.8-13.5,16.3-24.1,16.3c-11,0-20.7-6.9-24.3-17.2
		c-0.3-1-0.8-1.8-1.4-2.6c0,0,0,0,0,0c-0.2-0.2-0.3-0.4-0.5-0.6c0,0,0-0.1-0.1-0.1c-0.2-0.2-0.3-0.3-0.5-0.4c0,0-0.1-0.1-0.1-0.1
		c-0.1,0-0.1-0.1-0.2-0.1c-0.8-0.7-1.8-1.2-2.8-1.4c-2.3-0.6-4.7-0.2-6.6,1.1c-4.3,2.9-9.4,4.5-14.6,4.5c-3.4,0-6.8-0.7-9.9-1.9
		c-9.8-4-16.2-13.5-16.2-24.1c0-2.1-0.8-4.2-2.3-5.7s-3.5-2.3-5.7-2.3c-14.4,0-26.1-11.7-26.1-26.1c0-5.2,1.5-10.2,4.4-14.5
		c1.4-2.1,1.7-4.6,0.9-7c-0.8-2.4-2.6-4.2-4.9-5c-10.4-3.7-17.4-13.5-17.4-24.6c0-11.1,7-20.9,17.4-24.6c2.3-0.8,4.2-2.7,4.9-5
		c0.8-2.3,0.4-4.9-0.9-7c-2.9-4.3-4.4-9.3-4.4-14.5c0-7,2.7-13.5,7.6-18.4c4.9-4.9,11.5-7.6,18.4-7.6h0.1c2.1,0,4.2-0.8,5.7-2.3
		c1.5-1.5,2.3-3.5,2.3-5.7c0-6.9,2.7-13.5,7.6-18.4c4.9-4.9,11.5-7.6,18.4-7.6c5.2,0,10.2,1.5,14.5,4.4c2.1,1.4,4.6,1.7,7,0.9
		c2.4-0.8,4.2-2.6,5-4.9c3.7-10.4,13.5-17.4,24.6-17.4c11.1,0,20.9,7,24.6,17.4c0.8,2.3,2.7,4.2,5,4.9c2.4,0.8,4.9,0.4,7-0.9
		c4.3-2.9,9.3-4.4,14.5-4.4c14.4,0,26.1,11.7,26.1,26.1c0,4.4,3.6,8,8,8c14.5,0,26.1,11.7,26.1,26.1c0,5.2-1.5,10.2-4.4,14.5
		c-1.4,2.1-1.7,4.6-0.9,7c0.8,2.3,2.6,4.2,4.9,5c10.4,3.7,17.4,13.5,17.4,24.6C378.2,200.6,371.2,210.5,360.8,214.1L360.8,214.1z
		 M360.8,214.1"/>
	<path d="M250,101.2c-11.3,0-22.3,2.1-32.7,6.3c-4.1,1.6-6.1,6.3-4.5,10.4c1.6,4.1,6.3,6.1,10.4,4.5c8.5-3.4,17.5-5.1,26.8-5.1
		c39.7,0,72,32.3,72,72c0,39.7-32.3,72-72,72c-39.7,0-72-32.3-72-72c0-9.2,1.7-18.3,5.1-26.8c1.6-4.1-0.4-8.8-4.5-10.4
		c-4.1-1.6-8.8,0.4-10.4,4.5c-4.2,10.4-6.3,21.4-6.3,32.7c0,48.5,39.5,88,88,88c48.5,0,88-39.5,88-88
		C338,140.7,298.5,101.2,250,101.2L250,101.2z M250,101.2"/>
	<path d="M290,189.2c0,4.4,3.6,8,8,8c4.4,0,8-3.6,8-8c0-30.9-25.1-56-56-56c-4.4,0-8,3.6-8,8c0,4.4,3.6,8,8,8
		C272.1,149.2,290,167.1,290,189.2L290,189.2z M290,189.2"/>
</g>
</svg>
